<?xml version="1.0" encoding="UTF-8"?>
<svg id="Layer_1" data-name="Layer 1" xmlns="http://www.w3.org/2000/svg" viewBox="0 0 377.70831 351.41895">
  <defs>
    <style>
      .cls-1 {
        fill: #74cbe5;
      }

      .cls-1, .cls-2, .cls-3 {
        stroke-width: 2.5px;
      }

      .cls-1, .cls-2, .cls-3, .cls-4, .cls-5, .cls-6 {
        stroke-miterlimit: 10;
      }

      .cls-1, .cls-2, .cls-3, .cls-5, .cls-6 {
        stroke: #000;
      }

      .cls-2 {
        fill: #d1d3d4;
      }

      .cls-3, .cls-4 {
        fill: none;
      }

      .cls-4 {
        stroke: #ed1c24;
        stroke-width: 8px;
      }

      .cls-5 {
        fill: #d6ead1;
      }

      .cls-5, .cls-6 {
        stroke-width: 3px;
      }

      .cls-6 {
        fill: #fce3ee;
      }

      .cls-7 {
        stroke-width: 0px;
      }
    </style>
  </defs>
  <path class="cls-3" d="m60.85105,154.95798c2.49317-.42442,9.87934-2.02027,15.52883-8.53903,9.32195-10.75629,5.26067-24.92954,4.94951-25.95081"/>
  <path class="cls-3" d="m60.83482,306.26589c2.49317-.42442,9.87934-2.02027,15.52883-8.53903,9.32195-10.75629,5.26067-24.92954,4.94951-25.95081"/>
  <polygon class="cls-6" points="10.8555 221.91895 10.8555 349.91895 51.3555 349.91895 51.3555 324.41895 25.3555 324.41895 25.3555 288.41895 51.3555 288.41895 51.3555 265.41895 62.61362 265.41895 81.95486 231.91895 101.29611 265.41895 113.3555 265.41895 113.3555 289.55029 123.45419 279.19006 126.2045 298.11731 143.3555 306.58185 126.2045 315.04639 123.45419 333.97363 113.3555 323.6134 113.3555 349.91895 152.90427 349.91895 152.90427 221.91895 10.8555 221.91895"/>
  <path class="cls-5" d="m10.8555,70.91895v128h40.5v-25.5h-26v-36h26v-23h11.25812l19.34125-33.5,19.34125,33.5h12.05939v19.1618c1.7027-.39233,3.47357-.60651,5.29541-.60651,12.9787,0,23.5,10.5213,23.5,23.5s-10.5213,23.5-23.5,23.5c-1.82184,0-3.59271-.21417-5.29541-.60651v19.55121h39.54877V70.91895H10.8555Z"/>
  <polygon class="cls-2" points="81.87988 93.41895 65.13673 122.41895 98.62304 122.41895 81.87988 93.41895"/>
  <rect class="cls-2" x="32.37988" y="143.09636" width="29" height="24.32258"/>
  <polygon class="cls-2" points="81.80554 244.72686 65.06238 273.72686 98.5487 273.72686 81.80554 244.72686"/>
  <rect class="cls-2" x="32.59402" y="294.33943" width="29" height="24.32258"/>
  <path class="cls-3" d="m311.8642,154.17256c-2.49317-.42442-9.87934-2.02027-15.52883-8.53903-9.32195-10.75629-5.26067-24.92954-4.94951-25.95081"/>
  <polygon class="cls-6" points="219.8555 221.91895 219.8555 349.91895 260.3555 349.91895 260.3555 324.41895 234.3555 324.41895 234.3555 288.41895 260.3555 288.41895 260.3555 265.41895 271.61362 265.41895 290.95486 231.91895 310.29611 265.41895 322.3555 265.41895 322.3555 289.55029 332.45419 279.19006 335.2045 298.11731 352.3555 306.58185 335.2045 315.04639 332.45419 333.97363 322.3555 323.6134 322.3555 349.91895 361.90427 349.91895 361.90427 221.91895 219.8555 221.91895"/>
  <polygon class="cls-1" points="290.89349 93.63353 307.63664 122.63353 274.15033 122.63353 290.89349 93.63353"/>
  <ellipse class="cls-1" cx="327.87988" cy="156.41895" rx="16.5" ry="17"/>
  <path class="cls-3" d="m312.07898,307.21426c-2.49317-.42442-9.87934-2.02027-15.52883-8.53903-9.32195-10.75629-5.26067-24.92954-4.94951-25.95081"/>
  <polygon class="cls-1" points="291.10826 244.67522 307.85142 273.67522 274.36511 273.67522 291.10826 244.67522"/>
  <ellipse class="cls-1" cx="328.09466" cy="306.46064" rx="16.5" ry="17"/>
  <g>
    <line class="cls-4" x1="341.37988" y1="253.41895" x2="374.87988" y2="286.91895"/>
    <line class="cls-4" x1="374.87988" y1="253.41895" x2="341.37988" y2="286.91895"/>
  </g>
  <g>
    <path class="cls-7" d="m4.36768.47559l8.34424,13.41211h.05615V.47559h4.11572v19.99219h-4.396L4.17188,7.08398h-.05615v13.38379H0V.47559h4.36768Z"/>
    <path class="cls-7" d="m20.41211,10.09375c.354-.94238.8584-1.74512,1.51172-2.4082.65332-.66211,1.4375-1.17578,2.35205-1.53955.91455-.36426,1.94141-.54639,3.08008-.54639,1.13818,0,2.16992.18213,3.09375.54639.92432.36377,1.7124.87744,2.36621,1.53955.65332.66309,1.15723,1.46582,1.51221,2.4082.354.94287.53174,1.99268.53174,3.1499,0,1.15771-.17773,2.20312-.53174,3.13623-.35498.93359-.85889,1.73145-1.51221,2.39404-.65381.6626-1.44189,1.17139-2.36621,1.52588-.92383.35449-1.95557.53174-3.09375.53174-1.13867,0-2.16553-.17725-3.08008-.53174s-1.69873-.86328-2.35205-1.52588-1.15771-1.46045-1.51172-2.39404c-.35498-.93311-.53223-1.97852-.53223-3.13623,0-1.15723.17725-2.20703.53223-3.1499Zm3.61182,4.84424c.11182.55078.30322,1.04541.57422,1.48389.27002.43848.62988.78857,1.07764,1.0498.44824.26172,1.0083.39209,1.68018.39209s1.23633-.13037,1.69385-.39209c.45752-.26123.82129-.61133,1.09229-1.0498.27002-.43848.46191-.93311.57373-1.48389.1123-.55078.16797-1.11523.16797-1.69434,0-.57812-.05566-1.14795-.16797-1.70801-.11182-.56006-.30371-1.0542-.57373-1.48389-.271-.4292-.63477-.7793-1.09229-1.0498s-1.02197-.40625-1.69385-.40625-1.23193.13574-1.68018.40625c-.44775.27051-.80762.62061-1.07764,1.0498-.271.42969-.4624.92383-.57422,1.48389s-.16797,1.12988-.16797,1.70801c0,.5791.05615,1.14355.16797,1.69434Z"/>
    <path class="cls-7" d="m41.21582,5.9917v2.01611h.08398c.50391-.83984,1.15723-1.45117,1.95996-1.83398.80225-.38232,1.62402-.57422,2.46387-.57422,1.06396,0,1.93652.14502,2.61816.43408.68115.28955,1.21826.69092,1.60986,1.2041.39209.51367.66748,1.13867.82617,1.87598.1582.73779.23779,1.5542.23779,2.4502v8.90381h-3.97559v-8.17578c0-1.19482-.18701-2.08643-.56006-2.67432-.37354-.58789-1.03613-.88184-1.98828-.88184-1.08252,0-1.8667.32178-2.35205.96582s-.72803,1.70361-.72803,3.17822v7.58789h-3.97559V5.9917h3.77979Z"/>
    <path class="cls-7" d="m62.43945,11.11572v3.41602h-8.42822v-3.41602h8.42822Z"/>
    <path class="cls-7" d="m68.78125,16.86963c.17725.30811.40625.56006.68604.75635.28027.1958.60205.34082.96582.43359.36426.09375.74219.14014,1.13428.14014.27979,0,.57373-.03223.88184-.09814.30811-.06494.58789-.16797.84033-.30762.25195-.14014.46191-.32666.62988-.56006s.25195-.52734.25195-.88232c0-.59717-.39697-1.04492-1.18994-1.34375-.79395-.29834-1.8999-.59717-3.31787-.896-.5791-.13037-1.14404-.28418-1.69434-.46191-.55078-.17725-1.04053-.41064-1.46973-.7002-.42969-.28906-.7749-.65332-1.03613-1.0918-.26172-.43848-.39209-.9751-.39209-1.61035,0-.93311.18213-1.69824.5459-2.2959.36426-.59717.84473-1.06836,1.44238-1.41406.59717-.34521,1.26904-.58789,2.01562-.72803.74658-.13965,1.51221-.20996,2.29639-.20996.78369,0,1.54395.0752,2.28174.22412.7373.1499,1.39502.40186,1.97412.75586.57812.35498,1.05908.82617,1.44189,1.41406.38232.58789.61133,1.33008.68604,2.22607h-3.78027c-.05566-.76514-.34521-1.2832-.86768-1.55371-.52295-.27051-1.13867-.40625-1.84814-.40625-.22412,0-.4668.01416-.72803.04199-.26172.02783-.49951.08887-.71387.18213-.21484.09375-.39697.22852-.5459.40576-.1499.17773-.22412.41553-.22412.71436,0,.35449.13037.64355.39209.86768.26123.22412.60205.40625,1.02197.5459.41992.14014.90039.26611,1.44189.37842.54102.11182,1.0918.2334,1.65186.36377.57861.13086,1.14355.28955,1.69434.47607.55029.18652,1.04004.43408,1.46973.7417.4292.30811.77441.69092,1.03613,1.14844.26123.45752.39209,1.02197.39209,1.69385,0,.95215-.19189,1.75-.57422,2.39404-.38281.64404-.88184,1.16211-1.49805,1.55371-.61572.39209-1.3208.66797-2.11377.82617-.79395.1582-1.60107.23779-2.42188.23779-.84033,0-1.66162-.08398-2.46436-.25195s-1.5166-.44775-2.14209-.83984-1.13867-.91016-1.53955-1.5542c-.40186-.64355-.62109-1.45117-.6582-2.42188h3.77979c0,.42969.08838.79834.26611,1.10596Z"/>
    <path class="cls-7" d="m84.25098,5.9917v1.84814h.05615c.48486-.78418,1.10107-1.35303,1.84766-1.70801.74658-.35449,1.56836-.53223,2.46436-.53223,1.13818,0,2.11816.21484,2.93994.64404.82129.42969,1.50244.99902,2.04395,1.70801.54102.70996.94238,1.53564,1.2041,2.47803.26123.94287.39209,1.92773.39209,2.9541,0,.9707-.13086,1.90381-.39209,2.7998-.26172.896-.6582,1.68994-1.18994,2.38037-.53223.69043-1.19482,1.24121-1.98828,1.65186-.79346.41016-1.72168.61572-2.78613.61572-.896,0-1.72168-.18164-2.47803-.5459-.75586-.36377-1.37646-.90039-1.86182-1.60986h-.05615v6.85986h-3.97559V5.9917h3.77979Zm5.16602,11.47998c.43848-.26123.79297-.60205,1.06396-1.02197.27051-.41992.46191-.91016.57422-1.46973.11182-.56006.16797-1.12939.16797-1.70801s-.06104-1.14844-.18213-1.70801c-.12158-.56006-.32227-1.05957-.60205-1.49805s-.63965-.79346-1.07812-1.06396-.97559-.40625-1.60986-.40625c-.65381,0-1.19971.13574-1.63818.40625s-.79346.62061-1.06396,1.0498c-.27051.42969-.46191.92383-.57373,1.48389-.1123.56006-.16797,1.13916-.16797,1.73633,0,.57861.06006,1.14795.18164,1.70801.12158.55957.31738,1.0498.58838,1.46973.27002.41992.62988.76074,1.07764,1.02197.44824.26172.98926.39209,1.62402.39209.65332,0,1.19922-.13037,1.63818-.39209Z"/>
    <path class="cls-7" d="m101.83496,16.99561c.59717.5791,1.45605.86816,2.57617.86816.80225,0,1.49316-.2002,2.07178-.60205.57812-.40137.93311-.82617,1.06396-1.27393h3.5c-.56006,1.73584-1.41895,2.97754-2.57617,3.72412s-2.55762,1.11963-4.19971,1.11963c-1.13867,0-2.16553-.18164-3.08008-.5459-.91504-.36377-1.68945-.88184-2.32422-1.55371-.63477-.67236-1.12451-1.47461-1.46973-2.4082-.3457-.93311-.51807-1.95996-.51807-3.08008,0-1.08203.17725-2.09033.53223-3.02393.354-.93311.85791-1.74023,1.51172-2.42188.65332-.68115,1.43262-1.21826,2.33789-1.60986.90527-.39209,1.90869-.58838,3.01025-.58838,1.23193,0,2.30518.23828,3.21973.71436.91455.47559,1.66602,1.11523,2.25439,1.91797.58789.80273,1.01221,1.71729,1.27393,2.74365.26123,1.02686.354,2.1001.27979,3.22021h-10.44385c.05615,1.28809.38232,2.22168.97998,2.7998Zm4.49414-7.61572c-.47607-.52246-1.19971-.78418-2.17041-.78418-.63477,0-1.16162.10791-1.58203.32227-.41992.21484-.75586.48047-1.00781.79785s-.42969.65381-.53174,1.00781c-.10303.35498-.16406.67236-.18213.95215h6.46777c-.18652-1.00781-.51807-1.77344-.99365-2.2959Z"/>
    <path class="cls-7" d="m120.56689,8.5957c-.63525,0-1.16699.14502-1.59619.43408-.42969.28955-.77979.6626-1.0498,1.12012-.271.45752-.4624.96143-.57422,1.51172-.11182.55078-.16797,1.09717-.16797,1.63818,0,.52295.05615,1.05469.16797,1.59619s.29395,1.03125.5459,1.46973c.25195.43896.59229.79785,1.02197,1.07812.4292.27979.95215.41992,1.56836.41992.95166,0,1.68408-.26611,2.19775-.79785.51318-.53223.83496-1.24609.96582-2.14209h3.83643c-.26172,1.92285-1.0083,3.38818-2.24023,4.396s-2.80957,1.51172-4.73193,1.51172c-1.08301,0-2.07666-.18164-2.98193-.5459-.90576-.36377-1.67578-.87207-2.31006-1.52588-.63477-.65332-1.12988-1.43213-1.48389-2.33789-.35498-.90527-.53223-1.89941-.53223-2.98193,0-1.12012.16309-2.16064.49023-3.12207.32617-.96143.80713-1.79199,1.44189-2.49219.63428-.69971,1.40918-1.24609,2.32373-1.6377.91455-.39209,1.95996-.58838,3.13623-.58838.8584,0,1.68408.1123,2.47803.33594.79297.22412,1.50244.56494,2.12793,1.02246.625.45752,1.13379,1.02637,1.52588,1.70801.39209.68115.61621,1.48877.67188,2.42188h-3.8916c-.26172-1.66113-1.2417-2.49219-2.93994-2.49219Z"/>
    <path class="cls-7" d="m129.83447,3.75195V.47559h3.97607v3.27637h-3.97607Zm3.97607,2.23975v14.47607h-3.97607V5.9917h3.97607Z"/>
    <path class="cls-7" d="m135.43457,8.65186v-2.66016h2.37988v-1.12012c0-1.2876.40137-2.34229,1.2041-3.16357.80225-.82129,2.01611-1.23242,3.64014-1.23242.35449,0,.70898.01416,1.06396.04199.35449.02832.69971.05176,1.03613.07031v2.96777c-.4668-.05566-.95215-.08398-1.45605-.08398-.54199,0-.9292.12598-1.16211.37793-.23389.25195-.3501.67676-.3501,1.27393v.86816h2.74414v2.66016h-2.74414v11.81592h-3.97607v-11.81592h-2.37988Z"/>
    <path class="cls-7" d="m146.38232,3.75195V.47559h3.97607v3.27637h-3.97607Zm3.97607,2.23975v14.47607h-3.97607V5.9917h3.97607Z"/>
    <path class="cls-7" d="m160.41064,8.5957c-.63525,0-1.16699.14502-1.59619.43408-.42969.28955-.77979.6626-1.0498,1.12012-.271.45752-.4624.96143-.57422,1.51172-.11182.55078-.16797,1.09717-.16797,1.63818,0,.52295.05615,1.05469.16797,1.59619s.29395,1.03125.5459,1.46973c.25195.43896.59229.79785,1.02197,1.07812.4292.27979.95215.41992,1.56836.41992.95166,0,1.68408-.26611,2.19775-.79785.51318-.53223.83496-1.24609.96582-2.14209h3.83643c-.26172,1.92285-1.0083,3.38818-2.24023,4.396s-2.80957,1.51172-4.73193,1.51172c-1.08301,0-2.07666-.18164-2.98193-.5459-.90576-.36377-1.67578-.87207-2.31006-1.52588-.63477-.65332-1.12988-1.43213-1.48389-2.33789-.35498-.90527-.53223-1.89941-.53223-2.98193,0-1.12012.16309-2.16064.49023-3.12207.32617-.96143.80713-1.79199,1.44189-2.49219.63428-.69971,1.40918-1.24609,2.32373-1.6377.91455-.39209,1.95996-.58838,3.13623-.58838.8584,0,1.68408.1123,2.47803.33594.79297.22412,1.50244.56494,2.12793,1.02246.625.45752,1.13379,1.02637,1.52588,1.70801.39209.68115.61621,1.48877.67188,2.42188h-3.8916c-.26172-1.66113-1.2417-2.49219-2.93994-2.49219Z"/>
    <path class="cls-7" d="m46.04541,34.07568v7.28027h.05615c.48535-.74658,1.14307-1.29248,1.97412-1.63818.83008-.34521,1.69385-.51807,2.58984-.51807.72803,0,1.44629.1499,2.15625.44824.70898.29883,1.34814.75586,1.91797,1.37207.56885.61572,1.03125,1.40479,1.38574,2.36572.35449.96191.53223,2.10498.53223,3.43018,0,1.32568-.17773,2.46875-.53223,3.43018s-.81689,1.75-1.38574,2.36572c-.56982.61621-1.20898,1.07373-1.91797,1.37207-.70996.29834-1.42822.44775-2.15625.44775-1.06396,0-2.01611-.16797-2.85596-.50391s-1.47461-.90527-1.90381-1.70801h-.05615v1.84814h-3.77979v-19.99219h3.97559Zm6.44043,11.00439c-.13086-.56006-.33643-1.05469-.61621-1.48438-.27979-.4292-.62988-.77002-1.0498-1.02197-.42041-.25195-.9292-.37793-1.52637-.37793-.57861,0-1.08252.12598-1.51172.37793-.42969.25195-.78418.59277-1.06396,1.02197-.28027.42969-.48584.92432-.61621,1.48438-.13086.55957-.1958,1.14795-.1958,1.76367,0,.59766.06494,1.17627.1958,1.73633.13037.55957.33594,1.05469.61621,1.48389.27979.42969.63428.77002,1.06396,1.02197.4292.25195.93311.37793,1.51172.37793.59717,0,1.10596-.12598,1.52637-.37793.41992-.25195.77002-.59229,1.0498-1.02197.27979-.4292.48535-.92432.61621-1.48389.13037-.56006.1958-1.13867.1958-1.73633,0-.61572-.06543-1.2041-.1958-1.76367Z"/>
    <path class="cls-7" d="m59.28955,37.35205v-3.27637h3.97607v3.27637h-3.97607Zm3.97607,2.23975v14.47607h-3.97607v-14.47607h3.97607Z"/>
    <path class="cls-7" d="m70.18164,39.5918v2.01611h.08398c.50391-.83984,1.15723-1.45117,1.95996-1.83398.80225-.38232,1.62402-.57422,2.46387-.57422,1.06396,0,1.93652.14502,2.61816.43408.68115.28955,1.21826.69092,1.60986,1.2041.39209.51367.66748,1.13867.82617,1.87598.1582.73779.23779,1.5542.23779,2.4502v8.90381h-3.97559v-8.17578c0-1.19482-.18701-2.08643-.56006-2.67432-.37354-.58789-1.03613-.88184-1.98828-.88184-1.08252,0-1.8667.32178-2.35205.96582s-.72803,1.70361-.72803,3.17822v7.58789h-3.97559v-14.47607h3.77979Z"/>
    <path class="cls-7" d="m93.28125,52.21973c-.4668.78418-1.07812,1.34912-1.83398,1.69434s-1.60986.51758-2.56201.51758c-1.08301,0-2.03467-.20996-2.85596-.62988-.82178-.41992-1.49805-.98926-2.03027-1.70801-.53174-.71826-.93359-1.54443-1.2041-2.47803-.27051-.93311-.40576-1.90381-.40576-2.91162,0-.9707.13525-1.90869.40576-2.81445.27051-.90479.67236-1.70312,1.2041-2.39355.53223-.69043,1.19922-1.24609,2.00195-1.66602.80273-.42041,1.73633-.63037,2.80029-.63037.8584,0,1.67529.18213,2.44971.54639.77441.36377,1.38623.90039,1.83398,1.60986h.05615v-7.28027h3.97607v19.99219h-3.77979v-1.84814h-.05615Zm-.16797-7.15381c-.1123-.55029-.30371-1.03613-.57422-1.45605s-.62061-.76025-1.0498-1.02197c-.42969-.26123-.9707-.39209-1.62402-.39209-.65381,0-1.2041.13086-1.65186.39209-.44824.26172-.80762.60693-1.07812,1.03613-.271.42969-.4668.91943-.58789,1.46973-.12158.55078-.18213,1.125-.18213,1.72217,0,.56006.06494,1.12012.1958,1.68018.13037.55957.34033,1.05957.63037,1.49756.28906.43896.65283.79395,1.0918,1.06445.43848.27051.96582.40576,1.58203.40576.65332,0,1.19922-.13037,1.6377-.39209.43848-.26123.78857-.61133,1.05029-1.0498.26123-.43848.44775-.93799.56006-1.49805.11182-.56006.16797-1.13867.16797-1.73584s-.05615-1.17139-.16797-1.72217Z"/>
    <path class="cls-7" d="m104.36914,50.5957c.59717.5791,1.45605.86816,2.57617.86816.80225,0,1.49316-.2002,2.07178-.60205.57812-.40137.93311-.82617,1.06396-1.27393h3.5c-.56006,1.73584-1.41895,2.97754-2.57617,3.72412s-2.55762,1.11963-4.19971,1.11963c-1.13867,0-2.16553-.18164-3.08008-.5459-.91504-.36377-1.68945-.88184-2.32422-1.55371-.63477-.67236-1.12451-1.47461-1.46973-2.4082-.3457-.93311-.51807-1.95996-.51807-3.08008,0-1.08203.17725-2.09033.53223-3.02393.354-.93311.85791-1.74023,1.51172-2.42188.65332-.68115,1.43262-1.21826,2.33789-1.60986.90527-.39209,1.90869-.58838,3.01025-.58838,1.23193,0,2.30518.23828,3.21973.71436.91455.47559,1.66602,1.11523,2.25439,1.91797.58789.80273,1.01221,1.71729,1.27393,2.74365.26123,1.02686.354,2.1001.27979,3.22021h-10.44385c.05615,1.28809.38232,2.22168.97998,2.7998Zm4.49414-7.61572c-.47607-.52246-1.19971-.78418-2.17041-.78418-.63477,0-1.16162.10791-1.58203.32227-.41992.21484-.75586.48047-1.00781.79785s-.42969.65381-.53174,1.00781c-.10303.35498-.16406.67236-.18213.95215h6.46777c-.18652-1.00781-.51807-1.77344-.99365-2.2959Z"/>
    <path class="cls-7" d="m119.96484,39.5918v2.68799h.05615c.18604-.44775.43799-.86328.75586-1.24609.31738-.38232.68115-.70898,1.0918-.97998.41064-.27002.84961-.47998,1.31641-.62988.46631-.14893.95166-.22412,1.45557-.22412.26123,0,.55078.04688.86816.14014v3.6958c-.18652-.03711-.41064-.06982-.67188-.09766-.26172-.02832-.51367-.04199-.75586-.04199-.72803,0-1.34424.12158-1.84814.36377-.50391.24268-.91016.57422-1.21826.99414-.30762.41992-.52734.91016-.65771,1.46973-.13086.56006-.19629,1.16699-.19629,1.82031v6.52393h-3.97559v-14.47607h3.77979Z"/>
  </g>
  <g>
    <path class="cls-7" d="m244.02637,15.53955c.24219.4668.56445.84521.96582,1.13428.40137.28955.87305.50391,1.41406.64404.54199.14014,1.10156.20996,1.68066.20996.3916,0,.81152-.03223,1.25977-.09814.44824-.06494.86816-.19092,1.25977-.37793.39258-.18652.71875-.44336.98047-.77002.26074-.32617.3916-.74219.3916-1.24609,0-.54102-.17285-.97998-.51758-1.31592-.3457-.33594-.79785-.61572-1.3584-.83984-.55957-.22412-1.19434-.41992-1.9043-.58789-.70898-.16846-1.42773-.35449-2.15527-.56006-.74707-.18652-1.47559-.41553-2.18457-.68604s-1.34375-.62061-1.90332-1.05029c-.56055-.4292-1.01367-.96582-1.3584-1.60986-.3457-.64404-.51758-1.42334-.51758-2.33789,0-1.02637.21875-1.91797.65723-2.67432.43848-.75586,1.0127-1.38574,1.72266-1.88965.70898-.50391,1.51172-.87744,2.40723-1.12012.89648-.24219,1.79199-.36377,2.68848-.36377,1.04492,0,2.04785.1167,3.00977.34961.96094.23389,1.81543.61182,2.5625,1.13428.74609.52246,1.33887,1.18994,1.77734,2.00195s.6582,1.79688.6582,2.9541h-4.25586c-.03809-.59717-.16406-1.09229-.37793-1.48438-.21484-.3916-.5-.69971-.85449-.92383s-.76074-.38232-1.21777-.47607c-.45703-.09326-.95703-.13965-1.49805-.13965-.35449,0-.70898.0376-1.06348.11182-.35547.07471-.67676.20557-.96582.39209-.29004.18652-.52832.41992-.71484.69971-.18652.28027-.2793.63477-.2793,1.06396,0,.39209.07422.70996.22363.95215.14941.24268.44336.4668.88184.67188.43848.20557,1.04492.41113,1.82031.61621.77441.20557,1.78711.4668,3.03809.78418.37305.07471.89062.20996,1.55371.40576.66211.1958,1.32031.50879,1.97363.93799.65332.42969,1.21875,1.00342,1.69434,1.72217.47656.71875.71387,1.6377.71387,2.75781,0,.91504-.17773,1.76416-.53223,2.54785-.35449.78418-.88184,1.46094-1.58105,2.03027-.7002.56934-1.56836,1.0127-2.60449,1.33008-1.03613.31689-2.23535.47607-3.59766.47607-1.10156,0-2.16992-.13574-3.20605-.40625s-1.95117-.69531-2.74414-1.27393c-.79395-.57861-1.42383-1.31592-1.88965-2.21191-.46777-.896-.69141-1.95996-.67285-3.19238h4.25684c0,.67236.12109,1.2417.36328,1.70801Z"/>
    <path class="cls-7" d="m262.19824,5.9917v1.84814h.05664c.48438-.78418,1.10059-1.35303,1.84766-1.70801.74609-.35449,1.56836-.53223,2.46387-.53223,1.13867,0,2.11816.21484,2.94043.64404.82129.42969,1.50195.99902,2.04395,1.70801.54102.70996.94238,1.53564,1.2041,2.47803.26074.94287.3916,1.92773.3916,2.9541,0,.9707-.13086,1.90381-.3916,2.7998-.26172.896-.6582,1.68994-1.19043,2.38037s-1.19434,1.24121-1.98828,1.65186c-.79297.41016-1.72168.61572-2.78613.61572-.89551,0-1.72168-.18164-2.47754-.5459-.75586-.36377-1.37695-.90039-1.8623-1.60986h-.05566v6.85986h-3.97559V5.9917h3.7793Zm5.16602,11.47998c.43848-.26123.79297-.60205,1.06445-1.02197.27051-.41992.46191-.91016.57422-1.46973.11133-.56006.16797-1.12939.16797-1.70801s-.06152-1.14844-.18262-1.70801c-.12109-.56006-.32227-1.05957-.60156-1.49805-.28027-.43848-.63965-.79346-1.07812-1.06396s-.97559-.40625-1.61035-.40625c-.65332,0-1.19922.13574-1.6377.40625s-.79395.62061-1.06445,1.0498c-.27051.42969-.46191.92383-.57324,1.48389-.1123.56006-.16797,1.13916-.16797,1.73633,0,.57861.05957,1.14795.18164,1.70801.12109.55957.31738,1.0498.58789,1.46973s.62988.76074,1.07812,1.02197c.44824.26172.98926.39209,1.62402.39209.65332,0,1.19922-.13037,1.6377-.39209Z"/>
    <path class="cls-7" d="m279.78223,16.99561c.59766.5791,1.45605.86816,2.57617.86816.80273,0,1.49316-.2002,2.07227-.60205.57812-.40137.93262-.82617,1.06348-1.27393h3.5c-.55957,1.73584-1.41895,2.97754-2.57617,3.72412s-2.55762,1.11963-4.19922,1.11963c-1.13867,0-2.16602-.18164-3.08008-.5459-.91504-.36377-1.68945-.88184-2.32422-1.55371-.63477-.67236-1.125-1.47461-1.46973-2.4082-.3457-.93311-.51855-1.95996-.51855-3.08008,0-1.08203.17773-2.09033.53223-3.02393.35449-.93311.8584-1.74023,1.51172-2.42188.65332-.68115,1.43262-1.21826,2.33789-1.60986.90527-.39209,1.90918-.58838,3.01074-.58838,1.23145,0,2.30469.23828,3.21973.71436.91406.47559,1.66602,1.11523,2.25391,1.91797s1.0127,1.71729,1.27441,2.74365c.26074,1.02686.35352,2.1001.2793,3.22021h-10.44336c.05566,1.28809.38184,2.22168.97949,2.7998Zm4.49414-7.61572c-.47559-.52246-1.19922-.78418-2.16992-.78418-.63477,0-1.16211.10791-1.58203.32227-.41992.21484-.75586.48047-1.00781.79785s-.42969.65381-.53223,1.00781c-.10254.35498-.16406.67236-.18164.95215h6.46777c-.18652-1.00781-.51855-1.77344-.99414-2.2959Z"/>
    <path class="cls-7" d="m298.51465,8.5957c-.63574,0-1.16699.14502-1.59668.43408-.42969.28955-.7793.6626-1.0498,1.12012s-.46191.96143-.57422,1.51172c-.11133.55078-.16797,1.09717-.16797,1.63818,0,.52295.05664,1.05469.16797,1.59619.1123.5415.29395,1.03125.5459,1.46973.25195.43896.59277.79785,1.02246,1.07812.42871.27979.95215.41992,1.56836.41992.95117,0,1.68359-.26611,2.19727-.79785.51367-.53223.83496-1.24609.96582-2.14209h3.83691c-.26172,1.92285-1.00879,3.38818-2.24023,4.396-1.23242,1.00781-2.80957,1.51172-4.73242,1.51172-1.08301,0-2.07617-.18164-2.98145-.5459-.90625-.36377-1.67578-.87207-2.31055-1.52588-.63477-.65332-1.12988-1.43213-1.4834-2.33789-.35547-.90527-.53223-1.89941-.53223-2.98193,0-1.12012.16309-2.16064.49023-3.12207.32617-.96143.80664-1.79199,1.44141-2.49219.63477-.69971,1.40918-1.24609,2.32422-1.6377.91406-.39209,1.95996-.58838,3.13574-.58838.8584,0,1.68457.1123,2.47852.33594.79297.22412,1.50195.56494,2.12793,1.02246.625.45752,1.13379,1.02637,1.52539,1.70801.39258.68115.61621,1.48877.67188,2.42188h-3.8916c-.26172-1.66113-1.24121-2.49219-2.93945-2.49219Z"/>
    <path class="cls-7" d="m307.78223,3.75195V.47559h3.97559v3.27637h-3.97559Zm3.97559,2.23975v14.47607h-3.97559V5.9917h3.97559Z"/>
    <path class="cls-7" d="m313.38184,8.65186v-2.66016h2.37988v-1.12012c0-1.2876.40137-2.34229,1.2041-3.16357s2.0166-1.23242,3.64062-1.23242c.35449,0,.70898.01416,1.06348.04199.35449.02832.7002.05176,1.03613.07031v2.96777c-.4668-.05566-.95215-.08398-1.45605-.08398-.54199,0-.92871.12598-1.16211.37793s-.34961.67676-.34961,1.27393v.86816h2.74414v2.66016h-2.74414v11.81592h-3.97656v-11.81592h-2.37988Z"/>
    <path class="cls-7" d="m324.33008,3.75195V.47559h3.97559v3.27637h-3.97559Zm3.97559,2.23975v14.47607h-3.97559V5.9917h3.97559Z"/>
    <path class="cls-7" d="m338.3584,8.5957c-.63574,0-1.16699.14502-1.59668.43408-.42969.28955-.7793.6626-1.0498,1.12012s-.46191.96143-.57422,1.51172c-.11133.55078-.16797,1.09717-.16797,1.63818,0,.52295.05664,1.05469.16797,1.59619.1123.5415.29395,1.03125.5459,1.46973.25195.43896.59277.79785,1.02246,1.07812.42871.27979.95215.41992,1.56836.41992.95117,0,1.68359-.26611,2.19727-.79785.51367-.53223.83496-1.24609.96582-2.14209h3.83691c-.26172,1.92285-1.00879,3.38818-2.24023,4.396-1.23242,1.00781-2.80957,1.51172-4.73242,1.51172-1.08301,0-2.07617-.18164-2.98145-.5459-.90625-.36377-1.67578-.87207-2.31055-1.52588-.63477-.65332-1.12988-1.43213-1.4834-2.33789-.35547-.90527-.53223-1.89941-.53223-2.98193,0-1.12012.16309-2.16064.49023-3.12207.32617-.96143.80664-1.79199,1.44141-2.49219.63477-.69971,1.40918-1.24609,2.32422-1.6377.91406-.39209,1.95996-.58838,3.13574-.58838.8584,0,1.68457.1123,2.47852.33594.79297.22412,1.50195.56494,2.12793,1.02246.625.45752,1.13379,1.02637,1.52539,1.70801.39258.68115.61621,1.48877.67188,2.42188h-3.8916c-.26172-1.66113-1.24121-2.49219-2.93945-2.49219Z"/>
    <path class="cls-7" d="m255.35254,34.07568v7.28027h.05566c.48535-.74658,1.14355-1.29248,1.97461-1.63818.83008-.34521,1.69336-.51807,2.58984-.51807.72754,0,1.44629.1499,2.15625.44824.70898.29883,1.34766.75586,1.91797,1.37207.56836.61572,1.03125,1.40479,1.38574,2.36572.35449.96191.53223,2.10498.53223,3.43018,0,1.32568-.17773,2.46875-.53223,3.43018s-.81738,1.75-1.38574,2.36572c-.57031.61621-1.20898,1.07373-1.91797,1.37207-.70996.29834-1.42871.44775-2.15625.44775-1.06445,0-2.0166-.16797-2.85645-.50391s-1.47461-.90527-1.90332-1.70801h-.05664v1.84814h-3.7793v-19.99219h3.97559Zm6.44043,11.00439c-.13086-.56006-.33691-1.05469-.61621-1.48438-.28027-.4292-.62988-.77002-1.0498-1.02197-.4209-.25195-.92969-.37793-1.52637-.37793-.5791,0-1.08301.12598-1.51172.37793-.42969.25195-.78418.59277-1.06445,1.02197-.28027.42969-.48535.92432-.61621,1.48438-.13086.55957-.19531,1.14795-.19531,1.76367,0,.59766.06445,1.17627.19531,1.73633.13086.55957.33594,1.05469.61621,1.48389.28027.42969.63477.77002,1.06445,1.02197.42871.25195.93262.37793,1.51172.37793.59668,0,1.10547-.12598,1.52637-.37793.41992-.25195.76953-.59229,1.0498-1.02197.2793-.4292.48535-.92432.61621-1.48389.12988-.56006.19531-1.13867.19531-1.73633,0-.61572-.06543-1.2041-.19531-1.76367Z"/>
    <path class="cls-7" d="m268.59668,37.35205v-3.27637h3.97559v3.27637h-3.97559Zm3.97559,2.23975v14.47607h-3.97559v-14.47607h3.97559Z"/>
    <path class="cls-7" d="m279.48828,39.5918v2.01611h.08398c.50391-.83984,1.15723-1.45117,1.95996-1.83398.80273-.38232,1.62402-.57422,2.46387-.57422,1.06445,0,1.93652.14502,2.61816.43408.68164.28955,1.21875.69092,1.61035,1.2041.3916.51367.66699,1.13867.82617,1.87598.1582.73779.2373,1.5542.2373,2.4502v8.90381h-3.97559v-8.17578c0-1.19482-.18652-2.08643-.55957-2.67432-.37402-.58789-1.03613-.88184-1.98828-.88184-1.08301,0-1.86719.32178-2.35254.96582s-.72754,1.70361-.72754,3.17822v7.58789h-3.97559v-14.47607h3.7793Z"/>
    <path class="cls-7" d="m302.58789,52.21973c-.4668.78418-1.07812,1.34912-1.83398,1.69434s-1.60938.51758-2.56152.51758c-1.08301,0-2.03516-.20996-2.85645-.62988s-1.49805-.98926-2.03027-1.70801c-.53125-.71826-.93359-1.54443-1.2041-2.47803-.27051-.93311-.40527-1.90381-.40527-2.91162,0-.9707.13477-1.90869.40527-2.81445.27051-.90479.67285-1.70312,1.2041-2.39355.53223-.69043,1.19922-1.24609,2.00195-1.66602.80273-.42041,1.73633-.63037,2.80078-.63037.8584,0,1.6748.18213,2.44922.54639.77441.36377,1.38672.90039,1.83398,1.60986h.05664v-7.28027h3.97559v19.99219h-3.7793v-1.84814h-.05664Zm-.16797-7.15381c-.1123-.55029-.30371-1.03613-.57422-1.45605s-.62012-.76025-1.0498-1.02197c-.42969-.26123-.9707-.39209-1.62402-.39209s-1.2041.13086-1.65137.39209c-.44824.26172-.80762.60693-1.07812,1.03613-.27148.42969-.4668.91943-.58789,1.46973-.12207.55078-.18262,1.125-.18262,1.72217,0,.56006.06543,1.12012.19629,1.68018.12988.55957.33984,1.05957.62988,1.49756.28906.43896.65332.79395,1.0918,1.06445s.96582.40576,1.58203.40576c.65332,0,1.19922-.13037,1.6377-.39209.43848-.26123.78906-.61133,1.05078-1.0498.26074-.43848.44727-.93799.55957-1.49805s.16797-1.13867.16797-1.73584-.05566-1.17139-.16797-1.72217Z"/>
    <path class="cls-7" d="m313.67578,50.5957c.59766.5791,1.45605.86816,2.57617.86816.80273,0,1.49316-.2002,2.07227-.60205.57812-.40137.93262-.82617,1.06348-1.27393h3.5c-.55957,1.73584-1.41895,2.97754-2.57617,3.72412s-2.55762,1.11963-4.19922,1.11963c-1.13867,0-2.16602-.18164-3.08008-.5459-.91504-.36377-1.68945-.88184-2.32422-1.55371-.63477-.67236-1.125-1.47461-1.46973-2.4082-.3457-.93311-.51855-1.95996-.51855-3.08008,0-1.08203.17773-2.09033.53223-3.02393.35449-.93311.8584-1.74023,1.51172-2.42188.65332-.68115,1.43262-1.21826,2.33789-1.60986.90527-.39209,1.90918-.58838,3.01074-.58838,1.23145,0,2.30469.23828,3.21973.71436.91406.47559,1.66602,1.11523,2.25391,1.91797s1.0127,1.71729,1.27441,2.74365c.26074,1.02686.35352,2.1001.2793,3.22021h-10.44336c.05566,1.28809.38184,2.22168.97949,2.7998Zm4.49414-7.61572c-.47559-.52246-1.19922-.78418-2.16992-.78418-.63477,0-1.16211.10791-1.58203.32227-.41992.21484-.75586.48047-1.00781.79785s-.42969.65381-.53223,1.00781c-.10254.35498-.16406.67236-.18164.95215h6.46777c-.18652-1.00781-.51855-1.77344-.99414-2.2959Z"/>
    <path class="cls-7" d="m329.27148,39.5918v2.68799h.05664c.18555-.44775.4375-.86328.75586-1.24609.31738-.38232.68066-.70898,1.0918-.97998.41016-.27002.84961-.47998,1.31641-.62988.46582-.14893.95117-.22412,1.45508-.22412.26172,0,.55078.04688.86816.14014v3.6958c-.18652-.03711-.41016-.06982-.67188-.09766-.26172-.02832-.51367-.04199-.75586-.04199-.72754,0-1.34375.12158-1.84766.36377-.50391.24268-.91016.57422-1.21875.99414-.30762.41992-.52734.91016-.65723,1.46973-.13086.56006-.19629,1.16699-.19629,1.82031v6.52393h-3.97559v-14.47607h3.7793Z"/>
  </g>
  <path class="cls-5" d="m219.8555,70.91895v128h40.5v-25.5h-26v-36h26v-23h11.25812l19.34125-33.5,19.34125,33.5h12.05939v19.1618c1.7027-.39233,3.47357-.60651,5.29541-.60651,12.9787,0,23.5,10.5213,23.5,23.5s-10.5213,23.5-23.5,23.5c-1.82184,0-3.59271-.21417-5.29541-.60651v19.55121h39.54877V70.91895h-142.04877Z"/>
</svg>